<svg width="240" height="240" viewBox="0 0 240 240" fill="none" xmlns="http://www.w3.org/2000/svg">
<circle cx="120" cy="120" r="120" fill="#229ED9"/>
<path d="M81.229 128.772L185.655 84.636C191.893 82.286 196.967 84.636 194.963 93.084C194.963 93.084 187.659 126.422 182.585 142.428C179.715 151.876 175.973 155.284 172.399 154.95C165.263 154.282 152.661 146.836 137.321 141.26C126.735 137.018 121.161 134.334 110.909 129.272C98.4746 123.044 106.445 119.136 113.916 111.356C115.92 109.34 151.659 76.8359 152.327 74.4859C152.429 74.1519 152.531 72.8039 151.827 72.1359C151.123 71.4679 150.119 71.8019 149.447 72.0519C148.443 72.3859 131.579 84.3019 98.8076 107.782C94.5656 110.8 90.7576 112.316 87.3836 112.316C83.6756 112.316 76.5396 110.466 71.1316 108.95C64.6636 107.1 59.4216 106.066 59.9236 102.324C60.1916 100.308 63.5656 98.2259 70.1276 96.0439C129.563 72.6359 170.717 57.9639 193.624 51.8879C210.822 46.8259 216.897 45.8099 221.305 45.8099C222.309 45.8099 224.649 46.1439 226.319 47.4799C227.657 48.5519 228.161 50.0679 228.329 51.2199C228.497 52.3719 228.749 54.9239 228.581 56.9399C226.911 78.6119 218.233 140.412 213.827 168.936C211.823 181.204 207.749 185.112 203.843 185.446C195.369 186.114 189.127 179.886 181.323 174.812C168.387 166.252 161.145 160.676 148.543 152.116C133.203 141.76 143.289 136.014 151.995 126.756C154.331 124.406 188.071 93.084 188.739 90.4C188.905 89.9 189.071 88.664 188.239 87.9959C187.407 87.3279 186.239 87.8279 185.407 88.3279C184.069 88.9959 158.115 106.398 107.777 141.26C96.5796 149.652 86.8276 153.894 78.6876 153.894C69.6476 153.894 61.5076 151.876 54.5396 148.97C46.0656 145.396 39.3196 143.546 40.1516 138.484C40.6536 136.134 44.3616 133.784 51.0016 131.434L81.229 128.772Z" fill="white"/>
</svg>
