<svg width="512" height="512" viewBox="0 0 512 512" xmlns="http://www.w3.org/2000/svg">
  <circle cx="256" cy="256" r="256" fill="#0088CC"/>
  <path d="M109.1 256.2c0-.4 84.7-37.2 136.8-58.5 29.9-12.2 55.4-22.8 56.7-23.6 1.9-.8 4.3-.8 5.5.4.8.8.8 1.3.4 4.7-.4 2.4-4.3 43.8-9.1 92.2-6.7 68.5-8.7 80.3-10.6 81.5-2.4 1.5-5.5.8-10.2-2.4L256 335.3c-12.6-8.3-20.5-13.8-17.7-16.6 2.4-2.8 47.4-43.8 48.6-47 .4-1.2-.4-1.9-2-1.2-1.6.8-32.5 20.5-67.3 40.1-8.3 4.7-12.6 6.7-18.5 6.7-6.3 0-17.7-3.5-26.4-6.3-10.6-3.9-19.3-5.9-18.5-10.2.4-2.8 4.3-5.9 11.8-8.7 31.4-12.2 65.3-26.8 67.3-27.6z" fill="white"/>
</svg>
